<svg width="64" height="64" viewBox="0 0 64 64" fill="none" xmlns="http://www.w3.org/2000/svg">
<g clip-path="url(#clip0_1330_20379)">
<path d="M32 64C49.6731 64 64 49.6731 64 32C64 14.3269 49.6731 0 32 0C14.3269 0 0 14.3269 0 32C0 49.6731 14.3269 64 32 64Z" fill="#3B5998"/>
<path d="M40.0448 33.2527H34.3348V54.1715H25.6836V33.2527H21.5691V25.901H25.6836V21.1436C25.6836 17.7416 27.2997 12.4143 34.4118 12.4143L40.82 12.4411V19.5772H36.1704C35.4078 19.5772 34.3353 19.9582 34.3353 21.5811V25.9078H40.8006L40.0448 33.2527Z" fill="white"/>
</g>
<defs>
<clipPath id="clip0_1330_20379">
<rect width="64" height="64" fill="white"/>
</clipPath>
</defs>
</svg>
