<svg width="64" height="64" viewBox="0 0 64 64" fill="none" xmlns="http://www.w3.org/2000/svg">
<g clip-path="url(#clip0_1330_20381)">
<path d="M32 64C49.6731 64 64 49.6731 64 32C64 14.3269 49.6731 0 32 0C14.3269 0 0 14.3269 0 32C0 49.6731 14.3269 64 32 64Z" fill="#39CD00"/>
<path d="M52 31.2727C51.9716 31.679 51.9193 32.0834 51.8436 32.4836C51.5906 34.016 51.0726 35.4926 50.3127 36.8472C49.9491 37.4945 48.2 39.9527 47.6655 40.6C44.7091 44.16 39.7564 48.269 31.48 52.2654C31.3054 52.3498 31.1115 52.386 30.9182 52.3705C30.7249 52.355 30.5392 52.2882 30.3803 52.1771C30.2214 52.066 30.095 51.9145 30.0141 51.7383C29.9332 51.5621 29.9007 51.3674 29.92 51.1745L30.3382 47.4181C30.3698 47.1308 30.2861 46.8426 30.1054 46.6169C29.9248 46.3912 29.6619 46.2465 29.3745 46.2145C26.6212 45.939 23.9391 45.1743 21.4545 43.9563C15.7818 41.1527 12 36.1454 12 30.44C12 21.6545 20.9527 14.5454 32 14.5454C37.5491 14.5454 42.5673 16.3636 46.1818 19.2472C49.5673 21.9563 51.7345 25.6327 51.9673 29.7127C52.0061 30.2317 52.017 30.7525 52 31.2727Z" fill="white"/>
<path d="M26.4873 33.9599C26.584 34.0545 26.6606 34.1677 26.7125 34.2927C26.7643 34.4177 26.7904 34.5519 26.7891 34.6872C26.7896 34.8217 26.7635 34.955 26.7123 35.0794C26.6612 35.2037 26.586 35.3168 26.4911 35.4121C26.3962 35.5074 26.2833 35.5829 26.1591 35.6345C26.0349 35.6861 25.9018 35.7127 25.7673 35.7127H21.6764C21.4047 35.7117 21.1444 35.6033 20.9523 35.4112C20.7602 35.2191 20.6519 34.9589 20.6509 34.6872V26.9599C20.65 26.8247 20.6762 26.6906 20.7281 26.5657C20.7799 26.4408 20.8563 26.3275 20.9527 26.2327C21.0958 26.0891 21.2785 25.9913 21.4773 25.9518C21.6761 25.9123 21.8822 25.9329 22.0694 26.0109C22.2565 26.0888 22.4162 26.2207 22.5282 26.3897C22.6402 26.5587 22.6993 26.7572 22.6982 26.9599V33.6617H25.7673C25.9011 33.6607 26.0338 33.6866 26.1575 33.7378C26.2812 33.789 26.3933 33.8646 26.4873 33.9599Z" fill="#00C200"/>
<path d="M29.8182 26.7381V34.9091C29.8172 35.1209 29.7326 35.3239 29.5828 35.4737C29.433 35.6235 29.23 35.7081 29.0182 35.7091H28.56C28.3478 35.7091 28.1443 35.6248 27.9943 35.4747C27.8443 35.3247 27.76 35.1212 27.76 34.9091V26.7381C27.76 26.526 27.8443 26.3225 27.9943 26.1725C28.1443 26.0224 28.3478 25.9381 28.56 25.9381H29.0073C29.1131 25.9372 29.2181 25.9571 29.3162 25.9969C29.4143 26.0366 29.5036 26.0953 29.5789 26.1697C29.6543 26.244 29.7142 26.3325 29.7553 26.43C29.7963 26.5276 29.8177 26.6323 29.8182 26.7381Z" fill="#00C200"/>
<path d="M39.3164 26.9599V34.6436C39.3165 34.92 39.2093 35.1856 39.0173 35.3844C38.8253 35.5832 38.5635 35.6996 38.2873 35.709C38.0284 35.7049 37.7805 35.6037 37.5927 35.4254C37.5564 35.3963 36.1818 33.6072 35.0146 32.1018C34.1418 30.9781 33.3855 29.9963 33.3855 29.9963V34.6836C33.3861 34.8822 33.3289 35.0768 33.2207 35.2434C33.1126 35.4101 32.9582 35.5416 32.7764 35.6218C32.5947 35.7021 32.3935 35.7276 32.1975 35.6953C32.0015 35.663 31.8191 35.5743 31.6727 35.4399C31.5672 35.3443 31.4828 35.2275 31.4252 35.0973C31.3676 34.967 31.3379 34.826 31.3382 34.6836V27.0036C31.3348 26.7336 31.4351 26.4726 31.6185 26.2744C31.8018 26.0761 32.0542 25.9558 32.3236 25.9381C32.4761 25.9356 32.6273 25.967 32.7662 26.0298C32.9052 26.0927 33.0285 26.1856 33.1273 26.3018C33.1709 26.3527 35.2836 29.1018 36.4727 30.6654C36.9455 31.2763 37.2727 31.7054 37.2727 31.7054V26.9781C37.2746 26.7077 37.3829 26.4489 37.5741 26.2577C37.7653 26.0665 38.0241 25.9582 38.2945 25.9563C38.5624 25.9563 38.8196 26.0614 39.0107 26.2491C39.2018 26.4368 39.3116 26.6921 39.3164 26.9599Z" fill="#00C200"/>
<path d="M42.9091 31.8436V33.6617H45.9745C46.1141 33.6534 46.2539 33.6737 46.3853 33.7214C46.5167 33.7691 46.637 33.8431 46.7388 33.939C46.8405 34.0349 46.9216 34.1505 46.977 34.2789C47.0324 34.4072 47.061 34.5456 47.061 34.6854C47.061 34.8252 47.0324 34.9635 46.977 35.0919C46.9216 35.2202 46.8405 35.3359 46.7388 35.4317C46.637 35.5276 46.5167 35.6017 46.3853 35.6493C46.2539 35.697 46.1141 35.7173 45.9745 35.709H41.8727C41.6014 35.708 41.3415 35.5996 41.15 35.4074C40.9584 35.2152 40.8509 34.9549 40.8509 34.6836V26.9599C40.8518 26.6892 40.9598 26.4299 41.1512 26.2384C41.3427 26.047 41.602 25.9391 41.8727 25.9381H45.9636C46.1032 25.9298 46.243 25.9501 46.3744 25.9978C46.5058 26.0454 46.6261 26.1195 46.7278 26.2154C46.8296 26.3112 46.9107 26.4269 46.9661 26.5552C47.0215 26.6836 47.0501 26.8219 47.0501 26.9617C47.0501 27.1015 47.0215 27.2399 46.9661 27.3682C46.9107 27.4966 46.8296 27.6122 46.7278 27.7081C46.6261 27.804 46.5058 27.878 46.3744 27.9257C46.243 27.9734 46.1032 27.9937 45.9636 27.9854H42.9091V29.8036H45.9745C46.2455 29.8036 46.5054 29.9112 46.6971 30.1028C46.8887 30.2945 46.9963 30.5544 46.9963 30.8254C46.9963 31.0964 46.8887 31.3563 46.6971 31.5479C46.5054 31.7395 46.2455 31.8472 45.9745 31.8472L42.9091 31.8436Z" fill="#00C200"/>
</g>
<defs>
<clipPath id="clip0_1330_20381">
<rect width="64" height="64" fill="white"/>
</clipPath>
</defs>
</svg>
