<svg width="48" height="48" viewBox="0 0 48 48" fill="none" xmlns="http://www.w3.org/2000/svg">
<g clip-path="url(#clip0_2479_31089)">
<path d="M24 48C37.2548 48 48 37.2548 48 24C48 10.7452 37.2548 0 24 0C10.7452 0 0 10.7452 0 24C0 37.2548 10.7452 48 24 48Z" fill="#F44336"/>
<path d="M32.0344 15.1242L28.7813 18.2836C24.6188 14.2149 16.5281 17.1774 16.5281 23.993C16.5281 33.2367 29.6438 33.8648 30.7875 26.393H24V22.268H35.3156C36.6 28.9805 32.2688 36.0023 24 36.0023C17.3438 36.0023 12 30.6305 12 24.0023C12 13.3242 24.6656 8.28048 32.0344 15.1242Z" fill="white"/>
</g>
<defs>
<clipPath id="clip0_2479_31089">
<rect width="48" height="48" fill="white"/>
</clipPath>
</defs>
</svg>
